<?xml version="1.0" standalone="no"?>
<!DOCTYPE svg PUBLIC "-//W3C//DTD SVG 20010904//EN"
 "http://www.w3.org/TR/2001/REC-SVG-20010904/DTD/svg10.dtd">
<svg version="1.0" xmlns="http://www.w3.org/2000/svg"
 width="700.000000pt" height="700.000000pt" viewBox="0 0 700.000000 700.000000"
 preserveAspectRatio="xMidYMid meet">
<metadata>
Created by potrace 1.14, written by Peter Selinger 2001-2017
</metadata>
<g transform="translate(0.000000,700.000000) scale(0.100000,-0.100000)"
fill="#000000" stroke="none">
<path d="M4345 6715 c-528 -67 -1005 -315 -1436 -745 -390 -389 -629 -820
-710 -1280 -16 -90 -22 -188 -29 -455 -20 -746 -73 -1017 -258 -1300 -34 -51
-219 -244 -689 -716 l-644 -646 211 -203 211 -203 647 644 c471 470 666 657
717 691 274 179 531 230 1235 248 233 6 401 15 464 25 374 57 736 223 1076
493 116 91 371 346 464 462 278 349 447 721 513 1132 23 147 23 459 -1 593
-61 344 -237 651 -516 900 -196 175 -431 292 -696 345 -133 27 -408 35 -559
15z m435 -601 c174 -33 314 -100 450 -216 225 -192 337 -476 315 -793 -22
-316 -124 -610 -301 -872 -86 -127 -125 -175 -254 -307 -292 -301 -611 -481
-992 -558 -95 -19 -143 -23 -298 -22 -167 0 -195 3 -283 27 -321 86 -551 314
-639 632 -19 70 -22 105 -22 275 0 165 3 211 22 298 84 385 280 728 581 1014
317 302 640 465 1051 531 68 11 294 6 370 -9z"/>
<path d="M5150 2624 c-306 -34 -538 -148 -748 -367 -271 -284 -378 -669 -293
-1055 102 -464 504 -836 975 -901 429 -60 843 115 1108 469 138 184 207 376
224 615 22 331 -91 636 -326 879 -178 184 -369 291 -606 340 -72 15 -271 27
-334 20z m225 -599 c112 -24 189 -67 281 -159 122 -122 174 -246 174 -415 -1
-236 -156 -455 -380 -538 -68 -25 -87 -28 -205 -28 -120 0 -135 3 -200 29
-323 132 -465 487 -318 796 47 99 168 222 263 269 119 58 253 74 385 46z"/>
</g>
</svg>
